<svg width="682" height="751" viewBox="0 0 682 751" fill="none" xmlns="http://www.w3.org/2000/svg">
<path d="M135 566C135 551 123.5 472 71.5 422.5L34.5 401L0 384V490.5C7 488 20.1449 494.603 23.5 497L23.7658 497.19C30.5563 502.04 32.7885 503.634 43.5 514C59 529 54.6 580.1 55 588.5C55.5 599 52 606 56.5 627C59.4334 640.689 79 666 86.5 672.5C92.5 677.7 115.167 682.833 117.5 691.5L121 697.5H135H245C235.075 697.5 236.704 679.293 233.5 659C229 630.5 185.5 615 178.5 613L151.5 608.5L146.5 606L136 587.5L135 577V566Z" fill="url(#paint0_radial_22_442)"/>
<path d="M572 225.5C572 210.5 575.5 147 523.5 97.5001L484.5 97.4999H438H395.5C398 97.4999 441.5 111 461.5 142.5C466.111 149.762 475 157 480.5 173.5C487.321 193.963 491.6 239.6 492 248C492.5 258.5 489 265.5 493.5 286.5C496.433 300.189 516 325.5 523.5 332C529.5 337.2 550 343 554.5 351L577.5 375L602 389V353C600.5 346.5 602 338.044 602 317.5C602 288.5 604.5 274.5 597.5 272.5L588.5 268L583.5 265.5L573 247L570.5 236.5L572 225.5Z" fill="url(#paint1_radial_22_442)"/>
<path d="M328 174.5C328 159.5 316.5 80.5 264.5 31L227.5 9.5L193 0V95C201.5 94 213.145 103.103 216.5 105.5L216.766 105.69C223.556 110.54 225.789 112.134 236.5 122.5C252 137.5 247.6 188.6 248 197C248.5 207.5 245 214.5 249.5 235.5C252.433 249.189 266 269.5 273.5 276C279.5 281.2 301 288 304 288L325.5 291L344.5 297.5C367.5 326 430.5 306 426.5 306C416.575 306 429.704 287.793 426.5 267.5C422 239 378.5 223.5 371.5 221.5L344.5 217L334.5 208L329 196L328 188V174.5Z" fill="url(#paint2_radial_22_442)"/>
<path d="M573 559.5C573 544.5 561.5 465.5 509.5 416L472.5 394.5L438 377.5L443.5 483.5C450 487.5 458.145 488.103 461.5 490.5L461.766 490.69C468.556 495.54 470.789 497.134 481.5 507.5C497 522.5 492.6 573.6 493 582C493.5 592.5 490 599.5 494.5 620.5C497.433 634.189 517 659.5 524.5 666C530.5 671.2 552.5 676.5 557.5 685L565 698H577.5H681.5C671.575 698 674.704 672.793 671.5 652.5C667 624 623.5 608.5 616.5 606.5L589.5 602L584.5 599.5L574 581L572 570.5L573 559.5Z" fill="url(#paint3_radial_22_442)"/>
<path d="M382.5 225C429 256 425.5 248.5 431 305L428.5 350L432 361L442.5 379.5L447.5 382L485.5 404C492.5 406 514 413 518.5 441.5C521.704 461.793 531.076 471 541 471C545 471 516.5 477 462 477L442.5 483.5L413.5 466.5C403 459 388.5 451.2 382.5 446C375 439.5 355.434 414.189 352.5 400.5C348 379.5 351.5 372.5 351 362C350.676 355.194 359.011 322.358 350.542 302.934C349.351 301.766 348.169 300.593 347.052 299.465C339.055 295.148 324.642 290.612 319 289L326.5 266L343 233.5L382.5 225Z" fill="url(#paint4_radial_22_442)"/>
<path d="M382.5 225C429 256 425.5 248.5 431 305L428.5 350L432 361L442.5 379.5L447.5 382L485.5 404C492.5 406 514 413 518.5 441.5C521.704 461.793 531.076 471 541 471C545 471 516.5 477 462 477L442.5 483.5L413.5 466.5C403 459 388.5 451.2 382.5 446C375 439.5 355.434 414.189 352.5 400.5C348 379.5 351.5 372.5 351 362C350.676 355.194 359.011 322.358 350.542 302.934C349.351 301.766 348.169 300.593 347.052 299.465C339.055 295.148 324.642 290.612 319 289L326.5 266L343 233.5L382.5 225Z" fill="url(#paint5_radial_22_442)"/>
<path d="M203.5 309C250 340 246.5 332.5 252 389L249.5 434L253 445L263.5 463.5L268.5 466L306.5 488C313.5 490 335 497 339.5 525.5C342.704 545.793 352.076 555 362 555C366 555 337.5 561 283 561L263.5 567.5L234.5 550.5C224 543 209.5 535.2 203.5 530C196 523.5 176.434 498.189 173.5 484.5C169 463.5 172.5 456.5 172 446C171.676 439.194 180.011 406.358 171.542 386.934C170.351 385.766 169.169 384.593 168.052 383.465C160.055 379.148 145.642 374.612 140 373L147.5 350L164 317.5L203.5 309Z" fill="url(#paint6_radial_22_442)"/>
<path d="M149 258.5C149 243.5 137.5 164.5 85.5 115L48.5 93.5L0.5 84V175.5C8 173 34.1449 187.103 37.5 189.5L37.7658 189.69C44.5563 194.54 46.7885 196.134 57.5 206.5C73 221.5 68.6 272.6 69 281C69.5 291.5 66 298.5 70.5 319.5C73.4334 333.189 87 353.5 94.5 360C100.5 365.2 122 372 125 372L146.5 375L165.5 381.5C188.5 410 251.5 390 247.5 390C237.575 390 250.704 371.793 247.5 351.5C243 323 199.5 307.5 192.5 305.5L165.5 301L155.5 292L150 280L149 272V258.5Z" fill="url(#paint7_radial_22_442)"/>
<path d="M330.5 500C382.5 549.5 394 628.5 394 643.5V649L393.5 654.5L395 665L405.5 683.5L410.5 686L437.5 690.5C444.5 692.5 488 708 492.5 736.5C495.184 753.5 492.5 750 481 750H410.5H373L372.5 749.5L367.76 745.323L362.5 741.5L349 736C341 731 318.433 718.189 315.5 704.5C311 683.5 314.5 676.5 314 666C313.6 657.6 318 606.5 302.5 591.5C291.789 581.134 289.556 579.54 282.766 574.69L282.5 574.5C279.145 572.103 271 571.5 264.5 567.5L259 461.5L293.5 478.5L330.5 500Z" fill="url(#paint8_radial_22_442)"/>
<path d="M135 566C135 551 123.5 472 71.5 422.5L34.5 401L0 384V490.5C7 488 20.1449 494.603 23.5 497L23.7658 497.19C30.5563 502.04 32.7885 503.634 43.5 514C59 529 54.6 580.1 55 588.5C55.5 599 52 606 56.5 627C59.4334 640.689 79 666 86.5 672.5C92.5 677.7 115.167 682.833 117.5 691.5L121 697.5H135H245C235.075 697.5 236.704 679.293 233.5 659C229 630.5 185.5 615 178.5 613L151.5 608.5L146.5 606L136 587.5L135 577V566Z" fill="url(#paint9_radial_22_442)"/>
<path d="M572 225.5C572 210.5 575.5 147 523.5 97.5001L484.5 97.4999H438H395.5C398 97.4999 441.5 111 461.5 142.5C466.111 149.762 475 157 480.5 173.5C487.321 193.963 491.6 239.6 492 248C492.5 258.5 489 265.5 493.5 286.5C496.433 300.189 516 325.5 523.5 332C529.5 337.2 550 343 554.5 351L577.5 375L602 389V353C600.5 346.5 602 338.044 602 317.5C602 288.5 604.5 274.5 597.5 272.5L588.5 268L583.5 265.5L573 247L570.5 236.5L572 225.5Z" fill="url(#paint10_radial_22_442)"/>
<path d="M328 174.5C328 159.5 316.5 80.5 264.5 31L227.5 9.5L193 0V95C201.5 94 213.145 103.103 216.5 105.5L216.766 105.69C223.556 110.54 225.789 112.134 236.5 122.5C252 137.5 247.6 188.6 248 197C248.5 207.5 245 214.5 249.5 235.5C252.433 249.189 266 269.5 273.5 276C279.5 281.2 301 288 304 288L325.5 291L344.5 297.5C367.5 326 430.5 306 426.5 306C416.575 306 429.704 287.793 426.5 267.5C422 239 378.5 223.5 371.5 221.5L344.5 217L334.5 208L329 196L328 188V174.5Z" fill="url(#paint11_radial_22_442)"/>
<path d="M573 559.5C573 544.5 558.5 464.5 506.5 415L472.5 394.5L438 377.5L443.5 483.5C450 487.5 458.145 488.103 461.5 490.5L461.766 490.69C468.556 495.54 470.789 497.134 481.5 507.5C497 522.5 492.6 573.6 493 582C493.5 592.5 490 599.5 494.5 620.5C497.433 634.189 517 659.5 524.5 666C530.5 671.2 552.5 676.5 557.5 685L565 698H577.5H681.5C671.575 698 674.704 672.793 671.5 652.5C667 624 623.5 608.5 616.5 606.5L589.5 602L584.5 599.5L574 581L572 570.5L573 559.5Z" fill="url(#paint12_radial_22_442)"/>
<path d="M149 258.5C149 243.5 137.5 164.5 85.5 115L66 101L48.5 93.5L0.5 84V175.5C8 173 34.1449 187.103 37.5 189.5L37.7658 189.69C44.5563 194.54 46.7885 196.134 57.5 206.5C73 221.5 68.6 272.6 69 281C69.5 291.5 66 298.5 70.5 319.5C73.4334 333.189 87 353.5 94.5 360C100.5 365.2 122 372 125 372L146.5 375L165.5 381.5C188.5 410 251.5 390 247.5 390C237.575 390 250.704 371.793 247.5 351.5C243 323 199.5 307.5 192.5 305.5L165.5 301L155.5 292L150 280L149 272V258.5Z" fill="url(#paint13_radial_22_442)"/>
<path d="M330.5 500C382.5 549.5 394 628.5 394 643.5V649L393.5 654.5L395 665L405.5 683.5L410.5 686L437.5 690.5C444.5 692.5 488 708 492.5 736.5C495.184 753.5 492.5 750 481 750H410.5H373L372.5 749.5L367.76 745.323L362.5 741.5L349 736C341 731 318.433 718.189 315.5 704.5C311 683.5 314.5 676.5 314 666C313.6 657.6 318 606.5 302.5 591.5C291.789 581.134 289.556 579.54 282.766 574.69L282.5 574.5C279.145 572.103 271 571.5 264.5 567.5L259 461.5L293.5 478.5L330.5 500Z" fill="url(#paint14_radial_22_442)"/>
<defs>
<radialGradient id="paint0_radial_22_442" cx="0" cy="0" r="1" gradientUnits="userSpaceOnUse" gradientTransform="translate(122.596 540.75) rotate(90) scale(156.75 122.596)">
<stop stop-color="#0B20DA"/>
<stop offset="1" stop-color="#1844E2" stop-opacity="0"/>
</radialGradient>
<radialGradient id="paint1_radial_22_442" cx="0" cy="0" r="1" gradientUnits="userSpaceOnUse" gradientTransform="translate(498.967 243.25) rotate(90) scale(145.75 103.467)">
<stop stop-color="#0B20DA"/>
<stop offset="1" stop-color="#1844E2" stop-opacity="0"/>
</radialGradient>
<radialGradient id="paint2_radial_22_442" cx="0" cy="0" r="1" gradientUnits="userSpaceOnUse" gradientTransform="translate(310.009 156.41) rotate(90) scale(156.41 117.009)">
<stop stop-color="#0B20DA"/>
<stop offset="1" stop-color="#1844E2" stop-opacity="0"/>
</radialGradient>
<radialGradient id="paint3_radial_22_442" cx="0" cy="0" r="1" gradientUnits="userSpaceOnUse" gradientTransform="translate(559.856 537.75) rotate(90) scale(160.25 121.856)">
<stop stop-color="#0B20DA"/>
<stop offset="1" stop-color="#1844E2" stop-opacity="0"/>
</radialGradient>
<radialGradient id="paint4_radial_22_442" cx="0" cy="0" r="1" gradientUnits="userSpaceOnUse" gradientTransform="translate(418.685 357.25) rotate(90) scale(126.25 122.685)">
<stop stop-color="#0B20DA"/>
<stop offset="1" stop-color="#1844E2" stop-opacity="0"/>
</radialGradient>
<radialGradient id="paint5_radial_22_442" cx="0" cy="0" r="1" gradientUnits="userSpaceOnUse" gradientTransform="translate(418.685 357.25) rotate(90) scale(126.25 122.685)">
<stop stop-color="#0B20DA"/>
<stop offset="1" stop-color="#1844E2" stop-opacity="0"/>
</radialGradient>
<radialGradient id="paint6_radial_22_442" cx="0" cy="0" r="1" gradientUnits="userSpaceOnUse" gradientTransform="translate(239.685 441.25) rotate(90) scale(126.25 122.685)">
<stop stop-color="#0B20DA"/>
<stop offset="1" stop-color="#1844E2" stop-opacity="0"/>
</radialGradient>
<radialGradient id="paint7_radial_22_442" cx="0" cy="0" r="1" gradientUnits="userSpaceOnUse" gradientTransform="translate(124.259 240.41) rotate(90) scale(156.41 123.759)">
<stop stop-color="#0B20DA"/>
<stop offset="1" stop-color="#1844E2" stop-opacity="0"/>
</radialGradient>
<radialGradient id="paint8_radial_22_442" cx="0" cy="0" r="1" gradientUnits="userSpaceOnUse" gradientTransform="translate(376.229 605.899) rotate(90) scale(144.399 117.229)">
<stop stop-color="#0B20DA"/>
<stop offset="1" stop-color="#1844E2" stop-opacity="0"/>
</radialGradient>
<radialGradient id="paint9_radial_22_442" cx="0" cy="0" r="1" gradientUnits="userSpaceOnUse" gradientTransform="translate(122.596 540.75) rotate(90) scale(156.75 122.596)">
<stop stop-color="#0B20DA"/>
<stop offset="1" stop-color="#1844E2" stop-opacity="0"/>
</radialGradient>
<radialGradient id="paint10_radial_22_442" cx="0" cy="0" r="1" gradientUnits="userSpaceOnUse" gradientTransform="translate(522.5 233.5) rotate(59.7827) scale(157.964 112.137)">
<stop stop-color="#0B20DA"/>
<stop offset="1" stop-color="#1844E2" stop-opacity="0"/>
</radialGradient>
<radialGradient id="paint11_radial_22_442" cx="0" cy="0" r="1" gradientUnits="userSpaceOnUse" gradientTransform="translate(310.009 156.41) rotate(90) scale(156.41 117.009)">
<stop stop-color="#0B20DA"/>
<stop offset="1" stop-color="#1844E2" stop-opacity="0"/>
</radialGradient>
<radialGradient id="paint12_radial_22_442" cx="0" cy="0" r="1" gradientUnits="userSpaceOnUse" gradientTransform="translate(559.856 537.75) rotate(90) scale(160.25 121.856)">
<stop stop-color="#0B20DA"/>
<stop offset="1" stop-color="#1844E2" stop-opacity="0"/>
</radialGradient>
<radialGradient id="paint13_radial_22_442" cx="0" cy="0" r="1" gradientUnits="userSpaceOnUse" gradientTransform="translate(124.259 240.41) rotate(90) scale(156.41 123.759)">
<stop stop-color="#0B20DA"/>
<stop offset="1" stop-color="#1844E2" stop-opacity="0"/>
</radialGradient>
<radialGradient id="paint14_radial_22_442" cx="0" cy="0" r="1" gradientUnits="userSpaceOnUse" gradientTransform="translate(376.229 605.899) rotate(90) scale(144.399 117.229)">
<stop stop-color="#0B20DA"/>
<stop offset="1" stop-color="#1844E2" stop-opacity="0"/>
</radialGradient>
</defs>
</svg>
